<svg width="50" height="50" viewBox="0 0 50 50" fill="none" xmlns="http://www.w3.org/2000/svg">
<path fill-rule="evenodd" clip-rule="evenodd" d="M43.1818 0C46.9475 0 50 3.05261 50 6.81818V43.1818C50 46.9475 46.9475 50 43.1818 50H6.81818C3.05261 50 0 46.9475 0 43.1818V6.81818C0 3.05261 3.05261 0 6.81818 0H43.1818ZM43.1818 4.54545C44.437 4.54545 45.4545 5.563 45.4545 6.81818V43.1818C45.4545 44.437 44.437 45.4545 43.1818 45.4545H31.8182V29.5452H36.5368C37.515 29.5452 38.3834 28.9193 38.693 27.9911L39.6998 24.9707C40.0677 23.8668 39.2461 22.727 38.0827 22.727H31.8182V18.1816C31.8182 17.0453 32.9545 15.9089 34.0909 15.9089H38.6364C39.8916 15.9089 40.9091 14.8914 40.9091 13.6362V12.0771C40.9091 11.343 40.4402 10.6848 39.7302 10.4974C36.7511 9.71125 34.0909 9.71125 34.0909 9.71125C28.4091 9.71125 25 13.6362 25 17.0453V22.727H20.4545C19.1994 22.727 18.1818 23.7445 18.1818 24.9998V27.2725C18.1818 28.5277 19.1993 29.5452 20.4545 29.5452H25V45.4545H6.81818C5.563 45.4545 4.54545 44.437 4.54545 43.1818V6.81818C4.54545 5.563 5.563 4.54545 6.81818 4.54545H43.1818Z" fill="white"/>
</svg>
