<svg width="53" height="53" viewBox="0 0 53 53" fill="none" xmlns="http://www.w3.org/2000/svg">
<g clip-path="url(#clip0_265_1487)">
<path d="M39.2173 30.4545C39.1141 30.405 35.2502 28.5023 34.5636 28.2552C34.2833 28.1546 33.983 28.0563 33.6637 28.0563C33.1419 28.0563 32.7036 28.3163 32.3622 28.827C31.9763 29.4007 30.8078 30.7665 30.4468 31.1745C30.3997 31.2284 30.3353 31.2927 30.2968 31.2927C30.2622 31.2927 29.6642 31.0465 29.4832 30.9679C25.3384 29.1674 22.1923 24.8378 21.7609 24.1076C21.6992 24.0027 21.6967 23.955 21.6962 23.955C21.7113 23.8994 21.8507 23.7597 21.9226 23.6876C22.1331 23.4794 22.3611 23.2049 22.5817 22.9394C22.6861 22.8136 22.7907 22.6876 22.8935 22.5689C23.2135 22.1965 23.356 21.9074 23.5212 21.5726L23.6078 21.3986C24.0111 20.5972 23.6666 19.921 23.5553 19.7026C23.4639 19.5199 21.8324 15.5824 21.659 15.1687C21.2419 14.1705 20.6907 13.7057 19.9248 13.7057C19.8537 13.7057 19.9248 13.7057 19.6267 13.7182C19.2638 13.7336 17.2875 13.9937 16.4137 14.5446C15.4871 15.1288 13.9194 16.991 13.9194 20.266C13.9194 23.2135 15.7899 25.9965 16.593 27.055C16.613 27.0816 16.6496 27.1359 16.7028 27.2136C19.7783 31.7052 23.6124 35.0339 27.4991 36.5865C31.241 38.0812 33.0129 38.254 34.0202 38.254H34.0204C34.4437 38.254 34.7825 38.2208 35.0814 38.1913L35.271 38.1733C36.5637 38.0587 39.4043 36.5867 40.0505 34.7911C40.5595 33.3768 40.6937 31.8315 40.3551 31.2707C40.1231 30.8894 39.7234 30.6975 39.2173 30.4545Z" fill="white"/>
<path d="M26.9704 0C12.6164 0 0.938473 11.5901 0.938473 25.8363C0.938473 30.444 2.17158 34.9544 4.50754 38.9018L0.0364406 52.0907C-0.0468451 52.3366 0.0151029 52.6085 0.196989 52.7937C0.328285 52.9277 0.506385 53 0.688272 53C0.757963 53 0.828171 52.9895 0.896658 52.9677L14.6491 48.5976C18.4125 50.6083 22.6659 51.6697 26.9706 51.6697C41.3233 51.6698 53 40.0809 53 25.8363C53 11.5901 41.3233 0 26.9704 0ZM26.9704 46.2879C22.9199 46.2879 18.9967 45.1183 15.6243 42.9054C15.5109 42.8309 15.3793 42.7927 15.2468 42.7927C15.1767 42.7927 15.1065 42.8033 15.0382 42.825L8.14905 45.0149L10.373 38.4537C10.4449 38.2414 10.409 38.0072 10.2765 37.8262C7.70836 34.3172 6.35084 30.1713 6.35084 25.8363C6.35084 14.5578 15.6007 5.38191 26.9703 5.38191C38.3384 5.38191 47.5872 14.5578 47.5872 25.8363C47.5874 37.1134 38.3387 46.2879 26.9704 46.2879Z" fill="white"/>
</g>
<defs>
<clipPath id="clip0_265_1487">
<rect width="53" height="53" fill="white"/>
</clipPath>
</defs>
</svg>
